<svg width="33" height="32" viewBox="0 0 33 32" fill="none" xmlns="http://www.w3.org/2000/svg">
<g opacity="0.1">
<rect x="0.290154" width="32" height="32" rx="16" fill="#5C5FD6"/>
</g>
<path fill-rule="evenodd" clip-rule="evenodd" d="M14.3606 8.26811C14.5751 7.5175 15.2611 7 16.0418 7C17.5588 7 18.7887 8.22982 18.7887 9.74688V12.15C18.7887 12.4424 18.7893 12.6166 18.7998 12.7457C18.8062 12.8245 18.8147 12.8577 18.8175 12.8665C18.841 12.9112 18.8775 12.9477 18.9221 12.9712C18.931 12.9739 18.9641 12.9824 19.0429 12.9889C19.1721 12.9994 19.3463 13 19.6387 13H21.0038C21.694 13 22.261 13 22.714 13.0405C23.1801 13.0821 23.6162 13.1723 24.0037 13.4124C24.5798 13.7693 25.0208 14.3319 25.2102 14.9995C25.336 15.4428 25.2969 15.8916 25.2059 16.349C25.123 16.7658 24.9785 17.2709 24.8055 17.8755C24.7905 17.928 24.7753 17.9812 24.7598 18.0351L23.5899 22.1349C23.5783 22.1754 23.5668 22.2157 23.5556 22.2552C23.3532 22.9658 23.1952 23.5205 22.8584 23.9492C22.5675 24.3193 22.1887 24.6135 21.7422 24.7958C21.2391 25.0013 20.6653 25.0008 19.9311 25.0001C19.8875 25 19.8434 25 19.7987 25H11.2082C10.6741 25 10.2282 25 9.864 24.9703C9.48411 24.9392 9.12746 24.8721 8.79019 24.7003C8.27275 24.4366 7.85205 24.0159 7.5884 23.4985C7.41655 23.1612 7.34944 22.8046 7.31841 22.4247C7.28865 22.0604 7.28866 21.6146 7.28867 21.0804V17.9196C7.28866 17.3854 7.28865 16.9396 7.31841 16.5753C7.34944 16.1954 7.41655 15.8388 7.5884 15.5015C7.85205 14.9841 8.27275 14.5634 8.79019 14.2997C9.12746 14.1279 9.48411 14.0608 9.864 14.0297C10.2282 14 10.6741 14 11.2082 14H12.0818C12.3086 14 12.4399 13.9996 12.5382 13.9926C12.5984 13.9883 12.6235 13.9827 12.6302 13.9809C12.6693 13.9647 12.7037 13.9387 12.7301 13.9056C12.7336 13.8997 12.7459 13.877 12.7666 13.8203C12.8003 13.7277 12.8368 13.6016 12.8991 13.3835L14.3606 8.26811ZM12.729 13.9072C12.729 13.9072 12.7294 13.9064 12.7301 13.9056L12.729 13.9072ZM12.6321 13.9803C12.6321 13.9803 12.6313 13.9806 12.6302 13.9809L12.6321 13.9803ZM18.9195 12.9703C18.9196 12.9703 18.9201 12.9704 18.9211 12.9709L18.9195 12.9703ZM18.8184 12.8691C18.8184 12.8692 18.8182 12.8687 18.8178 12.8676L18.8184 12.8691ZM16.0418 8.5C15.9309 8.5 15.8334 8.57353 15.8029 8.68019L14.3414 13.7956C14.3334 13.8234 14.3255 13.8513 14.3176 13.8795C14.2249 14.2074 14.1263 14.5565 13.9103 14.8313C13.7229 15.0697 13.4768 15.2554 13.1961 15.3701C13.0653 15.4235 12.9282 15.4551 12.7887 15.4738V23.5H19.7987C20.7309 23.5 20.981 23.4865 21.1751 23.4072C21.3703 23.3275 21.5415 23.1973 21.679 23.0224C21.8086 22.8574 21.8917 22.6184 22.1475 21.7233C22.1474 21.7234 22.1475 21.7232 22.1475 21.7233L23.3175 17.6233C23.3301 17.5791 23.3426 17.5355 23.3547 17.493C23.5373 16.8546 23.6645 16.4094 23.7347 16.0565C23.8087 15.6846 23.7968 15.5133 23.7671 15.4088C23.6842 15.1167 23.4856 14.856 23.2137 14.6874C23.1172 14.6277 22.9534 14.5678 22.5805 14.5345C22.2022 14.5007 21.7028 14.5 20.9687 14.5L19.6125 14.5C19.355 14.5 19.1185 14.5 18.9208 14.4839C18.7077 14.4665 18.4745 14.4266 18.2442 14.3093C17.9149 14.1415 17.6472 13.8738 17.4794 13.5445C17.3621 13.3142 17.3222 13.081 17.3048 12.8679C17.2886 12.6702 17.2886 12.4337 17.2887 12.1762L17.2887 9.74688C17.2887 9.05825 16.7304 8.5 16.0418 8.5ZM11.2887 23.5V15.5H11.2387C10.6662 15.5 10.282 15.5006 9.98615 15.5248C9.69902 15.5482 9.56174 15.5901 9.47118 15.6362C9.23598 15.7561 9.04475 15.9473 8.92491 16.1825C8.87877 16.2731 8.83688 16.4104 8.81342 16.6975C8.78925 16.9934 8.78867 17.3776 8.78867 17.95V21.05C8.78867 21.6224 8.78925 22.0066 8.81342 22.3025C8.83688 22.5896 8.87877 22.7269 8.92491 22.8175C9.04475 23.0527 9.23598 23.2439 9.47118 23.3638C9.56174 23.4099 9.69902 23.4518 9.98615 23.4752C10.282 23.4994 10.6662 23.5 11.2387 23.5H11.2887Z" fill="#4E47D6"/>
</svg>
