<svg width="24" height="24" viewBox="0 0 24 24" fill="none" xmlns="http://www.w3.org/2000/svg">
<path d="M13.9453 2.75C15.2174 3.09141 16.3774 3.76142 17.3088 4.69279C18.2401 5.62416 18.9102 6.78412 19.2516 8.05625" stroke="#272E35" stroke-width="1.5" stroke-linecap="round" stroke-linejoin="round"/>
<path d="M13.1641 5.64844C13.9292 5.85164 14.627 6.25348 15.1867 6.81326C15.7465 7.37303 16.1484 8.07083 16.3516 8.83594" stroke="#272E35" stroke-width="1.5" stroke-linecap="round" stroke-linejoin="round"/>
<path d="M14.4125 12.7248L12.0687 14.2904C11.9608 14.3633 11.8358 14.4068 11.7059 14.4167C11.576 14.4265 11.4458 14.4024 11.3281 14.3467C9.73239 13.579 8.44364 12.2935 7.67187 10.6998C7.61649 10.5841 7.59172 10.4561 7.59993 10.328C7.60814 10.2 7.64905 10.0762 7.71875 9.96854L9.28437 7.58729C9.35069 7.48369 9.39051 7.36537 9.40032 7.24275C9.41013 7.12013 9.38963 6.99699 9.34062 6.88416L7.45625 2.48729C7.39384 2.33733 7.28386 2.21206 7.14326 2.13074C7.00266 2.04943 6.83922 2.01659 6.67812 2.03729C5.59274 2.17635 4.59522 2.70613 3.87221 3.5275C3.1492 4.34886 2.75025 5.40553 2.75 6.49979C2.75 9.8813 4.0933 13.1243 6.48439 15.5154C8.27462 17.3056 10.5424 18.5085 12.9883 19" stroke="#272E36" stroke-width="1.5" stroke-linecap="round" stroke-linejoin="round"/>
<path d="M19 20.75C21.0711 20.75 22.75 19.0711 22.75 17C22.75 14.9289 21.0711 13.25 19 13.25C16.9289 13.25 15.25 14.9289 15.25 17C15.25 19.0711 16.9289 20.75 19 20.75Z" stroke="#272E35" stroke-width="1.6" stroke-miterlimit="10"/>
<path d="M20.2661 16.1484L18.4431 18.1102L17.4883 17.2595" stroke="#272E35" stroke-width="1.6" stroke-linecap="round" stroke-linejoin="round"/>
</svg>
