<svg width="34" height="34" viewBox="0 0 34 34" fill="none" xmlns="http://www.w3.org/2000/svg">
<circle cx="17" cy="17" r="17" fill="#4E47D6"/>
<path d="M26.4831 18.0545H25.0285V14.5894C25.0285 10.1127 21.4266 6.47078 16.9991 6.47078C12.5716 6.47078 8.97023 10.1127 8.97023 14.5894V18.0545H7.51562V14.5894C7.51562 12.028 8.50234 9.62004 10.2936 7.80886C12.0849 5.99769 14.4664 5 16.9996 5C19.5329 5 21.9144 5.99769 23.7056 7.80886C25.4969 9.62004 26.4836 12.028 26.4836 14.5894V18.0545H26.4831Z" fill="white" stroke="white" stroke-width="0.5"/>
<path d="M16.9986 27.3161V26.4993C21.6044 26.4993 25.3508 22.7106 25.3508 18.0542H26.1587C26.1587 20.5283 25.2057 22.8545 23.4754 24.6036C21.745 26.3531 19.4449 27.3167 16.998 27.3167L16.9986 27.3161Z" fill="white" stroke="white"/>
<rect x="6" y="13.9375" width="4.12492" height="6.18738" rx="2" fill="white"/>
<rect x="23.876" y="13.9375" width="4.12492" height="6.18738" rx="2" fill="white"/>
<rect x="19.751" y="24.937" width="3.43743" height="4.81241" rx="1.71872" transform="rotate(90 19.751 24.937)" fill="white"/>
</svg>
