<svg width="24" height="24" viewBox="0 0 24 24" fill="none" xmlns="http://www.w3.org/2000/svg">
<path d="M19.8758 13.4118C19.9574 12.9535 20 12.4817 20 12C20 7.58172 16.4183 4 12 4C7.58172 4 4 7.58172 4 12C4 13.3482 4.3342 14.6209 4.92499 15.7373C5.0172 16.5602 4.84633 17.3939 4.43318 18.1169L4.39673 18.1808C3.93351 18.9914 4.51883 20 5.45247 20C6.75724 20 8.05451 19.8445 9.31727 19.5388C10.157 19.8377 11.0605 20 12 20C12.0556 20 12.1111 19.9994 12.1664 19.9983" stroke="#292D32" stroke-width="1.6" stroke-linecap="round"/>
<path d="M7.88889 12.7778C8.37981 12.7778 8.77778 12.3798 8.77778 11.8889C8.77778 11.398 8.37981 11 7.88889 11C7.39797 11 7 11.398 7 11.8889C7 12.3798 7.39797 12.7778 7.88889 12.7778Z" fill="#292D32"/>
<path d="M12.3333 11.8889C12.3333 12.3798 11.9354 12.7778 11.4444 12.7778C10.9535 12.7778 10.5556 12.3798 10.5556 11.8889C10.5556 11.398 10.9535 11 11.4444 11C11.9354 11 12.3333 11.398 12.3333 11.8889Z" fill="#292D32"/>
<path d="M15 12.7778C15.4909 12.7778 15.8889 12.3798 15.8889 11.8889C15.8889 11.398 15.4909 11 15 11C14.5091 11 14.1111 11.398 14.1111 11.8889C14.1111 12.3798 14.5091 12.7778 15 12.7778Z" fill="#292D32"/>
<path d="M18 22.75C20.0711 22.75 21.75 21.0711 21.75 19C21.75 16.9289 20.0711 15.25 18 15.25C15.9289 15.25 14.25 16.9289 14.25 19C14.25 21.0711 15.9289 22.75 18 22.75Z" stroke="#272E35" stroke-width="1.6" stroke-miterlimit="10"/>
<path d="M19.2661 18.1484L17.4431 20.1102L16.4883 19.2595" stroke="#272E35" stroke-width="1.6" stroke-linecap="round" stroke-linejoin="round"/>
</svg>
