<svg width="32" height="32" viewBox="0 0 32 32" fill="none" xmlns="http://www.w3.org/2000/svg">
<g opacity="0.1">
<rect width="32" height="32" rx="16" fill="#9CA3AF"/>
</g>
<path fill-rule="evenodd" clip-rule="evenodd" d="M7 10.75C7 9.23122 8.23122 8 9.75 8H22.25C23.7688 8 25 9.23122 25 10.75V18.25C25 19.7688 23.7688 21 22.25 21H16.6199C16.5602 21 16.5025 21.0213 16.4572 21.0602L13.2381 23.8194C13.0157 24.0101 12.7027 24.0538 12.4366 23.9314C12.1705 23.809 12 23.5429 12 23.25V21.25C12 21.1119 11.8881 21 11.75 21H9.75C8.23122 21 7 19.7688 7 18.25V10.75ZM9.75 9.5C9.05964 9.5 8.5 10.0596 8.5 10.75V18.25C8.5 18.9404 9.05964 19.5 9.75 19.5H11.75C12.7165 19.5 13.5 20.2835 13.5 21.25V21.6193L15.481 19.9213C15.7982 19.6494 16.2022 19.5 16.6199 19.5H22.25C22.9404 19.5 23.5 18.9404 23.5 18.25V10.75C23.5 10.0596 22.9404 9.5 22.25 9.5H9.75Z" fill="#555F6D"/>
</svg>
