<svg width="32" height="32" viewBox="0 0 32 32" fill="none" xmlns="http://www.w3.org/2000/svg">
<g opacity="0.1">
<rect width="32" height="32" rx="16" fill="#9CA3AF"/>
</g>
<path fill-rule="evenodd" clip-rule="evenodd" d="M14.0705 8.26811C14.285 7.5175 14.971 7 15.7517 7C17.2687 7 18.4985 8.22982 18.4985 9.74688V12.15C18.4985 12.4424 18.4991 12.6166 18.5097 12.7457C18.5161 12.8245 18.5246 12.8577 18.5274 12.8665C18.5509 12.9112 18.5874 12.9477 18.632 12.9712C18.6409 12.9739 18.674 12.9824 18.7528 12.9889C18.8819 12.9994 19.0561 13 19.3485 13H20.7137C21.4039 13 21.9709 13 22.4239 13.0405C22.8899 13.0821 23.3261 13.1723 23.7136 13.4124C24.2896 13.7693 24.7307 14.3319 24.9201 14.9995C25.0458 15.4428 25.0068 15.8916 24.9158 16.349C24.8329 16.7658 24.6884 17.2709 24.5154 17.8755C24.5004 17.928 24.4851 17.9812 24.4697 18.0351L23.2997 22.1349C23.2882 22.1754 23.2767 22.2157 23.2654 22.2552C23.0631 22.9658 22.9051 23.5205 22.5682 23.9492C22.2774 24.3193 21.8986 24.6135 21.4521 24.7958C20.949 25.0013 20.3751 25.0008 19.6409 25.0001C19.5974 25 19.5533 25 19.5085 25H10.9181C10.3839 25 9.9381 25 9.57387 24.9703C9.19398 24.9392 8.83733 24.8721 8.50006 24.7003C7.98262 24.4366 7.56192 24.0159 7.29827 23.4985C7.12642 23.1612 7.05931 22.8046 7.02828 22.4247C6.99852 22.0604 6.99852 21.6146 6.99854 21.0804V17.9196C6.99852 17.3854 6.99852 16.9396 7.02828 16.5753C7.05931 16.1954 7.12642 15.8388 7.29827 15.5015C7.56192 14.9841 7.98262 14.5634 8.50006 14.2997C8.83733 14.1279 9.19398 14.0608 9.57387 14.0297C9.9381 14 10.384 14 10.9181 14H11.7917C12.0184 14 12.1498 13.9996 12.248 13.9926C12.3082 13.9883 12.3334 13.9827 12.34 13.9809C12.3792 13.9647 12.4136 13.9387 12.4399 13.9056C12.4435 13.8997 12.4558 13.877 12.4765 13.8203C12.5101 13.7277 12.5466 13.6016 12.6089 13.3835L14.0705 8.26811ZM12.4388 13.9072C12.4388 13.9072 12.4393 13.9064 12.4399 13.9056L12.4388 13.9072ZM12.3419 13.9803C12.342 13.9803 12.3412 13.9806 12.34 13.9809L12.3419 13.9803ZM18.6294 12.9703C18.6294 12.9703 18.63 12.9704 18.631 12.9709L18.6294 12.9703ZM18.5283 12.8691C18.5283 12.8692 18.5281 12.8687 18.5277 12.8676L18.5283 12.8691ZM15.7517 8.5C15.6407 8.5 15.5433 8.57353 15.5128 8.68019L14.0512 13.7956C14.0433 13.8234 14.0354 13.8513 14.0274 13.8795C13.9348 14.2074 13.8361 14.5565 13.6202 14.8313C13.4328 15.0697 13.1867 15.2554 12.9059 15.3701C12.7752 15.4235 12.638 15.4551 12.4985 15.4738V23.5H19.5085C20.4408 23.5 20.6909 23.4865 20.885 23.4072C21.0802 23.3275 21.2514 23.1973 21.3888 23.0224C21.5185 22.8574 21.6016 22.6184 21.8573 21.7233C21.8573 21.7234 21.8574 21.7232 21.8573 21.7233L23.0274 17.6233C23.04 17.5791 23.0524 17.5355 23.0646 17.493C23.2471 16.8546 23.3744 16.4094 23.4446 16.0565C23.5186 15.6846 23.5066 15.5133 23.477 15.4088C23.3941 15.1167 23.1955 14.856 22.9235 14.6874C22.827 14.6277 22.6632 14.5678 22.2904 14.5345C21.9121 14.5007 21.4126 14.5 20.6786 14.5L19.3223 14.5C19.0648 14.5 18.8284 14.5 18.6307 14.4839C18.4175 14.4665 18.1844 14.4266 17.9541 14.3093C17.6248 14.1415 17.3571 13.8738 17.1893 13.5445C17.0719 13.3142 17.0321 13.081 17.0147 12.8679C16.9985 12.6702 16.9985 12.4337 16.9985 12.1762L16.9985 9.74688C16.9985 9.05825 16.4403 8.5 15.7517 8.5ZM10.9985 23.5V15.5H10.9485C10.3761 15.5 9.99189 15.5006 9.69601 15.5248C9.40889 15.5482 9.27161 15.5901 9.18105 15.6362C8.94585 15.7561 8.75462 15.9473 8.63478 16.1825C8.58863 16.2731 8.54675 16.4104 8.52329 16.6975C8.49912 16.9934 8.49854 17.3776 8.49854 17.95V21.05C8.49854 21.6224 8.49912 22.0066 8.52329 22.3025C8.54675 22.5896 8.58863 22.7269 8.63478 22.8175C8.75462 23.0527 8.94585 23.2439 9.18105 23.3638C9.27161 23.4099 9.40889 23.4518 9.69601 23.4752C9.99189 23.4994 10.3761 23.5 10.9485 23.5H10.9985Z" fill="#555F6D"/>
</svg>
