<svg width="16" height="16" viewBox="0 0 16 16" fill="none" xmlns="http://www.w3.org/2000/svg">
<g clip-path="url(#clip0_1112_38256)">
<path fill-rule="evenodd" clip-rule="evenodd" d="M11.2 1.4C11.2 1.06863 11.4687 0.800003 11.8 0.800003H14.6C14.9314 0.800003 15.2 1.06863 15.2 1.4V4.2C15.2 4.53137 14.9314 4.8 14.6 4.8C14.2687 4.8 14 4.53137 14 4.2V2.84853L9.22431 7.62427C8.99 7.85858 8.6101 7.85858 8.37578 7.62427C8.14147 7.38995 8.14147 7.01005 8.37578 6.77574L13.1515 2H11.8C11.4687 2 11.2 1.73137 11.2 1.4ZM0.800049 3.8C0.800049 2.58498 1.78502 1.6 3.00005 1.6H7.20005C7.53142 1.6 7.80005 1.86863 7.80005 2.2C7.80005 2.53137 7.53142 2.8 7.20005 2.8H3.00005C2.44776 2.8 2.00005 3.24772 2.00005 3.8V13C2.00005 13.5523 2.44776 14 3.00005 14H12.2C12.7523 14 13.2 13.5523 13.2 13V8.8C13.2 8.46863 13.4687 8.2 13.8 8.2C14.1314 8.2 14.4 8.46863 14.4 8.8V13C14.4 14.215 13.4151 15.2 12.2 15.2H3.00005C1.78502 15.2 0.800049 14.215 0.800049 13V3.8Z" fill="#4E47D6"/>
</g>
<defs>
<clipPath id="clip0_1112_38256">
<rect width="16" height="16" fill="white"/>
</clipPath>
</defs>
</svg>
