<svg width="32" height="33" viewBox="0 0 32 33" fill="none" xmlns="http://www.w3.org/2000/svg">
<path fill-rule="evenodd" clip-rule="evenodd" d="M8.8295 9.16935C9.26884 8.73001 9.98116 8.73001 10.4205 9.16935L16 14.7489L21.5795 9.16935C22.0188 8.73001 22.7312 8.73001 23.1705 9.16935C23.6098 9.60869 23.6098 10.321 23.1705 10.7603L17.591 16.3398L23.1705 21.9193C23.6098 22.3587 23.6098 23.071 23.1705 23.5103C22.7312 23.9497 22.0188 23.9497 21.5795 23.5103L16 17.9308L10.4205 23.5103C9.98116 23.9497 9.26884 23.9497 8.8295 23.5103C8.39017 23.071 8.39017 22.3587 8.8295 21.9193L14.409 16.3398L8.8295 10.7603C8.39017 10.321 8.39017 9.60869 8.8295 9.16935Z" fill="#4A545E"/>
</svg>
