<svg width="21" height="20" viewBox="0 0 21 20" fill="none" xmlns="http://www.w3.org/2000/svg">
<path fill-rule="evenodd" clip-rule="evenodd" d="M12.7897 8.45384C13.0913 8.16995 13.566 8.18433 13.8499 8.48597L17.8499 12.736C18.1217 13.0248 18.1217 13.4752 17.8499 13.764L13.8499 18.014C13.566 18.3156 13.0913 18.33 12.7897 18.0461C12.4881 17.7623 12.4737 17.2876 12.7576 16.986L15.5679 14H3.80371C3.3895 14 3.05371 13.6642 3.05371 13.25C3.05371 12.8358 3.3895 12.5 3.80371 12.5H15.5679L12.7576 9.51401C12.4737 9.21238 12.4881 8.73773 12.7897 8.45384Z" fill="#4A545E"/>
<path fill-rule="evenodd" clip-rule="evenodd" d="M3.80371 2C4.21792 2 4.55371 2.33579 4.55371 2.75V13.25C4.55371 13.6642 4.21792 14 3.80371 14C3.3895 14 3.05371 13.6642 3.05371 13.25V2.75C3.05371 2.33579 3.3895 2 3.80371 2Z" fill="#4A545E"/>
</svg>
