<svg width="32" height="32" viewBox="0 0 32 32" fill="none" xmlns="http://www.w3.org/2000/svg">
<g filter="url(#filter0_d_1017_7083)">
<rect x="2" y="1" width="28" height="28" rx="6" fill="#5C5FD6"/>
<rect x="2.5" y="1.5" width="27" height="27" rx="5.5" stroke="#5C5FD6"/>
<path fill-rule="evenodd" clip-rule="evenodd" d="M14.0705 7.26811C14.285 6.5175 14.971 6 15.7517 6C17.2687 6 18.4985 7.22982 18.4985 8.74688V11.15C18.4985 11.4424 18.4991 11.6166 18.5097 11.7457C18.5161 11.8245 18.5246 11.8577 18.5274 11.8665C18.5509 11.9112 18.5874 11.9477 18.632 11.9712C18.6409 11.9739 18.674 11.9824 18.7528 11.9889C18.8819 11.9994 19.0561 12 19.3485 12H20.7137C21.4039 12 21.9709 12 22.4239 12.0405C22.8899 12.0821 23.3261 12.1723 23.7136 12.4124C24.2896 12.7693 24.7307 13.3319 24.9201 13.9995C25.0458 14.4428 25.0068 14.8916 24.9158 15.349C24.8329 15.7658 24.6884 16.2709 24.5154 16.8755C24.5004 16.928 24.4851 16.9812 24.4697 17.0351L23.2997 21.1349C23.2882 21.1754 23.2767 21.2157 23.2654 21.2552C23.0631 21.9658 22.9051 22.5205 22.5682 22.9492C22.2774 23.3193 21.8986 23.6135 21.4521 23.7958C20.949 24.0013 20.3751 24.0008 19.6409 24.0001C19.5974 24 19.5533 24 19.5085 24H10.9181C10.3839 24 9.9381 24 9.57387 23.9703C9.19398 23.9392 8.83733 23.8721 8.50006 23.7003C7.98262 23.4366 7.56192 23.0159 7.29827 22.4985C7.12642 22.1612 7.05931 21.8046 7.02828 21.4247C6.99852 21.0604 6.99852 20.6146 6.99854 20.0804V16.9196C6.99852 16.3854 6.99852 15.9396 7.02828 15.5753C7.05931 15.1954 7.12642 14.8388 7.29827 14.5015C7.56192 13.9841 7.98262 13.5634 8.50006 13.2997C8.83733 13.1279 9.19398 13.0608 9.57387 13.0297C9.9381 13 10.384 13 10.9181 13H11.7917C12.0184 13 12.1498 12.9996 12.248 12.9926C12.3082 12.9883 12.3334 12.9827 12.34 12.9809C12.3792 12.9647 12.4136 12.9387 12.4399 12.9056C12.4435 12.8997 12.4558 12.877 12.4765 12.8203C12.5101 12.7277 12.5466 12.6016 12.6089 12.3835L14.0705 7.26811ZM12.4388 12.9072C12.4388 12.9072 12.4393 12.9064 12.4399 12.9056L12.4388 12.9072ZM12.3419 12.9803C12.342 12.9803 12.3412 12.9806 12.34 12.9809L12.3419 12.9803ZM18.6294 11.9703C18.6294 11.9703 18.63 11.9704 18.631 11.9709L18.6294 11.9703ZM18.5283 11.8691C18.5283 11.8692 18.5281 11.8687 18.5277 11.8676L18.5283 11.8691ZM15.7517 7.5C15.6407 7.5 15.5433 7.57353 15.5128 7.68019L14.0512 12.7956C14.0433 12.8234 14.0354 12.8513 14.0274 12.8795C13.9348 13.2074 13.8361 13.5565 13.6202 13.8313C13.4328 14.0697 13.1867 14.2554 12.9059 14.3701C12.7752 14.4235 12.638 14.4551 12.4985 14.4738V22.5H19.5085C20.4408 22.5 20.6909 22.4865 20.885 22.4072C21.0802 22.3275 21.2514 22.1973 21.3888 22.0224C21.5185 21.8574 21.6016 21.6184 21.8573 20.7233C21.8573 20.7234 21.8574 20.7232 21.8573 20.7233L23.0274 16.6233C23.04 16.5791 23.0524 16.5355 23.0646 16.493C23.2471 15.8546 23.3744 15.4094 23.4446 15.0565C23.5186 14.6846 23.5066 14.5133 23.477 14.4088C23.3941 14.1167 23.1955 13.856 22.9235 13.6874C22.827 13.6277 22.6632 13.5678 22.2904 13.5345C21.9121 13.5007 21.4126 13.5 20.6786 13.5L19.3223 13.5C19.0648 13.5 18.8284 13.5 18.6307 13.4839C18.4175 13.4665 18.1844 13.4266 17.9541 13.3093C17.6248 13.1415 17.3571 12.8738 17.1893 12.5445C17.0719 12.3142 17.0321 12.081 17.0147 11.8679C16.9985 11.6702 16.9985 11.4337 16.9985 11.1762L16.9985 8.74688C16.9985 8.05825 16.4403 7.5 15.7517 7.5ZM10.9985 22.5V14.5H10.9485C10.3761 14.5 9.99189 14.5006 9.69601 14.5248C9.40889 14.5482 9.27161 14.5901 9.18105 14.6362C8.94585 14.7561 8.75462 14.9473 8.63478 15.1825C8.58863 15.2731 8.54675 15.4104 8.52329 15.6975C8.49912 15.9934 8.49854 16.3776 8.49854 16.95V20.05C8.49854 20.6224 8.49912 21.0066 8.52329 21.3025C8.54675 21.5896 8.58863 21.7269 8.63478 21.8175C8.75462 22.0527 8.94585 22.2439 9.18105 22.3638C9.27161 22.4099 9.40889 22.4518 9.69601 22.4752C9.99189 22.4994 10.3761 22.5 10.9485 22.5H10.9985Z" fill="white"/>
</g>
<defs>
<filter id="filter0_d_1017_7083" x="0" y="0" width="32" height="32" filterUnits="userSpaceOnUse" color-interpolation-filters="sRGB">
<feFlood flood-opacity="0" result="BackgroundImageFix"/>
<feColorMatrix in="SourceAlpha" type="matrix" values="0 0 0 0 0 0 0 0 0 0 0 0 0 0 0 0 0 0 127 0" result="hardAlpha"/>
<feOffset dy="1"/>
<feGaussianBlur stdDeviation="1"/>
<feComposite in2="hardAlpha" operator="out"/>
<feColorMatrix type="matrix" values="0 0 0 0 0.105882 0 0 0 0 0.141176 0 0 0 0 0.172549 0 0 0 0.12 0"/>
<feBlend mode="normal" in2="BackgroundImageFix" result="effect1_dropShadow_1017_7083"/>
<feBlend mode="normal" in="SourceGraphic" in2="effect1_dropShadow_1017_7083" result="shape"/>
</filter>
</defs>
</svg>
