<svg width="32" height="32" viewBox="0 0 32 32" fill="none" xmlns="http://www.w3.org/2000/svg">
<g filter="url(#filter0_d_1017_7076)">
<rect x="2" y="1" width="28" height="28" rx="6" fill="white"/>
<path fill-rule="evenodd" clip-rule="evenodd" d="M12.3576 6.00008C12.4012 6.00012 12.4453 6.00017 12.49 6.00017L21.0804 6.00017C21.6146 6.00015 22.0604 6.00015 22.4247 6.0299C22.8046 6.06094 23.1612 6.12805 23.4985 6.2999C24.0159 6.56355 24.4366 6.98425 24.7003 7.50169C24.8721 7.83895 24.9392 8.19561 24.9703 8.5755C25 8.93972 25 9.38557 25 9.91971V13.0806C25 13.6148 25 14.0606 24.9703 14.4248C24.9392 14.8047 24.8721 15.1614 24.7003 15.4986C24.4366 16.0161 24.0159 16.4368 23.4985 16.7004C23.1612 16.8723 22.8046 16.9394 22.4247 16.9704C22.0604 17.0002 21.6146 17.0002 21.0805 17.0002H20.2069C19.9801 17.0002 19.8488 17.0006 19.7505 17.0076C19.6903 17.0118 19.6651 17.0174 19.6585 17.0193C19.6194 17.0355 19.585 17.0614 19.5586 17.0946C19.555 17.1005 19.5427 17.1231 19.5221 17.1799C19.4884 17.2724 19.4519 17.3986 19.3896 17.6167L17.928 22.7321C17.7136 23.4827 17.0275 24.0002 16.2469 24.0002C14.7298 24.0002 13.5 22.7703 13.5 21.2533V18.8502C13.5 18.5578 13.4994 18.3836 13.4889 18.2544C13.4824 18.1756 13.4739 18.1425 13.4712 18.1336C13.4477 18.089 13.4112 18.0525 13.3665 18.029C13.3577 18.0262 13.3245 18.0177 13.2457 18.0113C13.1166 18.0007 12.9424 18.0002 12.65 18.0002H11.2848C10.5946 18.0002 10.0277 18.0002 9.57465 17.9597C9.10859 17.918 8.67247 17.8279 8.28495 17.5878C7.70891 17.2309 7.26784 16.6682 7.07847 16.0007C6.95271 15.5574 6.99178 15.1086 7.08275 14.6511C7.16562 14.2344 7.31016 13.7293 7.48319 13.1246C7.49817 13.0723 7.51338 13.0191 7.52877 12.9652L8.69879 8.86525C8.71037 8.82473 8.72184 8.78447 8.7331 8.74492C8.93547 8.03434 9.09346 7.47962 9.4303 7.05098C9.72116 6.68086 10.0999 6.38667 10.5464 6.20432C11.0496 5.99882 11.6234 5.99937 12.3576 6.00008ZM13.3691 18.0299C13.3691 18.0299 13.3686 18.0297 13.3676 18.0293L13.3691 18.0299ZM13.4703 18.131C13.4703 18.131 13.4705 18.1315 13.4708 18.1325L13.4703 18.131ZM19.5597 17.0929C19.5597 17.093 19.5592 17.0937 19.5586 17.0946L19.5597 17.0929ZM19.6566 17.0198C19.6566 17.0198 19.6573 17.0196 19.6585 17.0193L19.6566 17.0198ZM12.49 7.50017C11.5578 7.50017 11.3076 7.5137 11.1136 7.59296C10.9183 7.67271 10.7472 7.8029 10.6097 7.97781C10.48 8.14281 10.397 8.38172 10.1412 9.27687C10.1412 9.27695 10.1412 9.27679 10.1412 9.27687L8.97119 13.3769C8.95855 13.4211 8.9461 13.4647 8.93395 13.5071C8.75142 14.1456 8.62414 14.5907 8.55394 14.9437C8.47998 15.3156 8.49189 15.4869 8.52153 15.5913C8.60442 15.8835 8.80307 16.1442 9.07501 16.3127C9.17151 16.3725 9.33529 16.4323 9.70818 16.4657C10.0864 16.4995 10.5859 16.5002 11.32 16.5002L12.6762 16.5002C12.9337 16.5001 13.1702 16.5001 13.3679 16.5163C13.581 16.5337 13.8142 16.5736 14.0445 16.6909C14.3738 16.8587 14.6415 17.1264 14.8093 17.4557C14.9266 17.686 14.9665 17.9192 14.9839 18.1323C15 18.33 15 18.5665 15 18.824L15 21.2533C15 21.9419 15.5583 22.5002 16.2469 22.5002C16.3578 22.5002 16.4553 22.4266 16.4858 22.32L17.9473 17.2046C17.9552 17.1768 17.9631 17.1488 17.9711 17.1207C18.0638 16.7927 18.1624 16.4436 18.3783 16.1689C18.5657 15.9304 18.8119 15.7448 19.0926 15.6301C19.2234 15.5767 19.3605 15.545 19.5 15.5264V7.50017H12.49ZM21 7.50017V15.5002H21.05C21.6224 15.5002 22.0066 15.4996 22.3025 15.4754C22.5896 15.4519 22.7269 15.4101 22.8175 15.3639C23.0527 15.2441 23.2439 15.0529 23.3638 14.8177C23.4099 14.7271 23.4518 14.5898 23.4752 14.3027C23.4994 14.0068 23.5 13.6226 23.5 13.0502V9.95017C23.5 9.37774 23.4994 8.99352 23.4752 8.69764C23.4518 8.41052 23.4099 8.27324 23.3638 8.18268C23.2439 7.94748 23.0527 7.75625 22.8175 7.63641C22.7269 7.59026 22.5896 7.54838 22.3025 7.52492C22.0066 7.50075 21.6224 7.50017 21.05 7.50017H21Z" fill="#555F6D"/>
</g>
<defs>
<filter id="filter0_d_1017_7076" x="0" y="0" width="32" height="32" filterUnits="userSpaceOnUse" color-interpolation-filters="sRGB">
<feFlood flood-opacity="0" result="BackgroundImageFix"/>
<feColorMatrix in="SourceAlpha" type="matrix" values="0 0 0 0 0 0 0 0 0 0 0 0 0 0 0 0 0 0 127 0" result="hardAlpha"/>
<feOffset dy="1"/>
<feGaussianBlur stdDeviation="1"/>
<feComposite in2="hardAlpha" operator="out"/>
<feColorMatrix type="matrix" values="0 0 0 0 0.105882 0 0 0 0 0.141176 0 0 0 0 0.172549 0 0 0 0.12 0"/>
<feBlend mode="normal" in2="BackgroundImageFix" result="effect1_dropShadow_1017_7076"/>
<feBlend mode="normal" in="SourceGraphic" in2="effect1_dropShadow_1017_7076" result="shape"/>
</filter>
</defs>
</svg>
